------------------------------:TPB IS BENEDICTION TO ME :--------------------------


Screen Link:---
 
http://www.shotpix.com/images/15669440358602498585.jpg


General Info :---


Format                           : Matroska
File size                        : 224 MiB
Duration                         : 1h 0mn
Overall bit rate                 : 520 Kbps
Movie name                       : P
Encoded date                     : UTC 2011-06-08 17:55:16
Writing application              : mkvmerge v4.6.0 ('Still Crazy After All These Years') built on Mar 10 2011 02:50:32
Writing library                  : libebml v1.2.0 + libmatroska v1.1.0

Video
ID                               : 1
Format                           : AVC
Format/Info                      : Advanced Video Codec
Format profile                   : High@L4.0
Format settings, CABAC           : Yes
Format settings, ReFrames        : 3 frames
Codec ID                         : V_MPEG4/ISO/AVC
Duration                         : 1h 0mn
Bit rate mode                    : Variable
Bit rate                         : 391 Kbps
Maximum bit rate                 : 25.0 Mbps
Width                            : 720 pixels
Height                           : 480 pixels
Display aspect ratio             : 4:3
Original display aspect ratio    : 4:3
Frame rate                       : 29.970 fps
Standard                         : NTSC
Color space                      : YUV
Chroma subsampling               : 4:2:0
Bit depth                        : 8 bits
Scan type                        : Progressive
Bits/(Pixel*Frame)               : 0.038
Stream size                      : 165 MiB (73%)

Audio
ID                               : 2
Format                           : MPEG Audio
Format version                   : Version 1
Format profile                   : Layer 3
Codec ID                         : A_MPEG/L3
Codec ID/Hint                    : MP3
Duration                         : 1h 0mn
Bit rate mode                    : Constant
Bit rate                         : 128 Kbps
Channel(s)                       : 2 channels
Sampling rate                    : 44.1 KHz
Compression mode                 : Lossy
Stream size                      : 55.2 MiB (25%)



------------------------------:TPB IS BENEDICTION TO ME :--------------------------


